<svg width="1338" height="68" viewBox="0 0 1338 68" fill="none" xmlns="http://www.w3.org/2000/svg">
<g clip-path="url(#clip0_64_94)">
<path d="M20.7271 9.99481H22.2237C27.4197 10.1073 32.5309 12.188 36.2019 15.8714C34.8465 17.2492 33.4628 18.5707 32.1355 19.9485C30.0741 18.0927 27.5891 16.6587 24.8782 16.1526C20.8683 15.3091 16.5477 16.0682 13.1873 18.3458C9.51627 20.7358 7.03125 24.7847 6.49472 29.1148C5.9017 33.3887 7.11597 37.8875 9.91161 41.2054C12.5943 44.439 16.6889 46.4634 20.9247 46.604C24.8782 46.829 29.001 45.6199 31.8814 42.8644C34.1405 40.9243 35.1853 37.9719 35.5242 35.1039C30.8366 35.1039 26.1489 35.132 21.4613 35.1039V29.3117H41.2002C42.2168 35.5257 40.7484 42.527 36.0043 46.9696C32.8415 50.1187 28.4645 51.9745 24.0028 52.34C19.6822 52.7618 15.2205 51.9464 11.38 49.8657C6.7771 47.4194 3.10606 43.2861 1.29878 38.4218C-0.395551 33.9511 -0.42379 28.8899 1.15758 24.3911C2.59776 20.2859 5.36516 16.6587 8.92325 14.1281C12.3401 11.6256 16.4912 10.2479 20.7271 9.99481Z" fill="#CFCFDE"/>
<path d="M133.965 11.4558H140.008V51.6078C138.003 51.6078 135.97 51.636 133.965 51.5797C133.993 38.2238 133.965 24.8398 133.965 11.4558Z" fill="#CFCFDE"/>
<path d="M54.6421 25.3741C58.3696 24.6711 62.4077 25.4584 65.4858 27.6797C68.2814 29.6479 70.2299 32.7409 70.8229 36.115C71.5854 40.0234 70.6252 44.2972 68.0837 47.3902C65.3446 50.8487 60.8546 52.7044 56.4776 52.4232C52.4677 52.1983 48.5707 50.202 46.1987 46.9403C43.516 43.3412 42.8665 38.3925 44.3349 34.1749C45.8033 29.6479 49.9544 26.1895 54.6421 25.3741ZM55.4892 30.7164C53.9643 31.1101 52.5524 31.9817 51.5358 33.2189C48.7966 36.4805 48.9661 41.7948 51.9876 44.8315C53.7102 46.5748 56.3082 47.3902 58.7085 46.9122C60.9393 46.5185 62.8878 45.0283 63.9609 43.0601C65.8246 39.7141 65.2881 35.1028 62.436 32.4878C60.6005 30.8008 57.9178 30.0978 55.4892 30.7164Z" fill="#CFCFDE"/>
<path d="M84.5752 25.3741C88.8392 24.5586 93.4986 25.7396 96.6896 28.7201C101.886 33.3595 102.45 42.0478 98.0168 47.3902C95.3342 50.7643 90.9854 52.6201 86.6931 52.4232C82.5985 52.3108 78.5603 50.2863 76.1318 46.9403C73.3926 43.2569 72.7996 38.1957 74.3527 33.8937C75.9059 29.5073 79.9723 26.1613 84.5752 25.3741ZM85.4223 30.7164C83.8975 31.1101 82.4855 31.9817 81.4689 33.1908C78.758 36.3962 78.871 41.6261 81.7795 44.6909C83.5021 46.5185 86.1848 47.4183 88.6698 46.9122C90.8724 46.4904 92.8491 45.0283 93.9222 43.0601C95.7577 39.6859 95.2212 35.0746 92.3408 32.4597C90.5053 30.7726 87.8226 30.0978 85.4223 30.7164Z" fill="#CFCFDE"/>
<path d="M109.962 27.0049C113.209 24.9804 117.53 24.4181 121.031 26.1614C122.133 26.6394 123.036 27.4548 123.912 28.2702C123.94 27.511 123.912 26.7237 123.94 25.9364C125.832 25.9645 127.724 25.9364 129.644 25.9645V50.7643C129.616 54.504 128.656 58.4686 125.945 61.196C122.98 64.2046 118.434 65.1324 114.339 64.5138C109.962 63.8671 106.15 60.6898 104.455 56.669C106.15 55.8536 107.929 55.2069 109.679 54.4477C110.668 56.7534 112.673 58.7216 115.186 59.1715C117.699 59.6214 120.608 59.0028 122.246 56.9221C123.997 54.7851 123.997 51.8609 123.912 49.246C122.613 50.5113 121.116 51.636 119.309 52.0577C115.384 53.1543 111.063 51.8047 108.042 49.1616C104.992 46.5186 103.185 42.4415 103.354 38.3925C103.439 33.8094 106.037 29.3949 109.962 27.0049ZM115.807 30.604C114.085 30.8851 112.475 31.8411 111.374 33.1627C108.719 36.3118 108.719 41.3449 111.402 44.4378C112.927 46.2655 115.384 47.2777 117.756 47.0247C119.987 46.7997 122.048 45.3938 123.149 43.4537C125.013 40.164 124.703 35.6933 122.189 32.8253C120.636 31.0538 118.151 30.1822 115.807 30.604Z" fill="#CFCFDE"/>
<path d="M147.265 28.4389C150.654 25.2897 155.878 24.2212 160.227 25.8802C164.35 27.4266 166.976 31.335 168.303 35.3558C162.175 37.8864 156.076 40.3889 149.948 42.9195C150.795 44.5222 152.094 45.9843 153.845 46.5748C156.302 47.4464 159.239 47.1371 161.3 45.5063C162.119 44.8877 162.768 44.0723 163.39 43.285C164.943 44.3254 166.496 45.3376 168.049 46.378C165.846 49.6677 162.147 51.9734 158.166 52.3389C153.76 52.8731 149.073 51.1861 146.22 47.7557C141.533 42.3571 141.985 33.3032 147.265 28.4389ZM150.287 33.6406C149.327 35.0184 148.931 36.7055 148.96 38.3644C153.054 36.6774 157.149 34.9903 161.244 33.2751C160.566 31.7005 158.928 30.7445 157.262 30.4915C154.579 30.0135 151.784 31.4475 150.287 33.6406Z" fill="#CFCFDE"/>
</g>
<path d="M1310.46 15.9018V0H1313.71V13.6696C1312.81 14.121 1311.58 14.9738 1310.46 15.9018ZM1304.82 20.6925C1305.82 19.4885 1306.84 18.2846 1308.06 17.2563V0H1304.82V20.6925ZM1267.23 33.3337C1267.23 37.5725 1268.9 41.6106 1271.97 44.6957C1275.02 47.7557 1279.04 49.4612 1283.28 49.4612C1285.08 49.4612 1286.92 49.085 1288.22 48.4329V45.1722C1286.7 45.8244 1284.85 46.2006 1283.28 46.2006C1276.34 46.2006 1270.5 40.3315 1270.5 33.3587V30.4242C1270.5 23.4514 1276.37 17.5823 1283.28 17.5823C1286.72 17.5823 1289.94 18.9116 1292.34 21.3195C1294.74 23.7273 1296.06 26.9629 1296.06 30.4242V49.4863H1299.3V29.7971C1299.1 25.6336 1297.33 21.7459 1294.34 18.8364C1291.32 15.9269 1287.4 14.3217 1283.28 14.3217C1279.06 14.3217 1275.04 16.0022 1271.97 19.0872C1268.93 22.1472 1267.23 26.1854 1267.23 30.4493V33.3337ZM1315.8 25.5081C1317.27 24.0283 1319.17 23.2006 1321.04 23.2006C1325.06 23.2006 1328.18 26.3609 1328.18 30.374V33.3086C1328.18 37.3467 1325.04 40.482 1321.04 40.482C1319.1 40.482 1317.22 39.4034 1315.75 37.4721C1314.45 35.7666 1313.61 33.434 1313.48 31.3522L1310.86 34.6128C1311.38 37.0708 1312.66 39.4536 1314.48 41.109C1316.35 42.8146 1318.7 43.7677 1321.04 43.7677C1326.78 43.7677 1331.45 39.0774 1331.45 33.3337V30.3991C1331.45 27.6652 1330.35 25.0567 1328.36 23.0752C1326.36 21.0687 1323.76 19.9651 1321.04 19.9651C1319.32 19.9651 1316.6 20.5921 1313.36 23.5267C1312.48 24.4046 1310.44 26.4613 1309.19 27.916C1307.09 30.2235 1304.07 33.6597 1301.48 37.1461V42.2377C1304.35 38.5256 1305.99 36.4438 1308.71 33.3086C1311.11 30.4493 1314.1 27.0131 1315.8 25.5081ZM1239.13 19.3631V15.5005C1236.18 13.9204 1232.99 13.2181 1228.75 13.2181C1224.4 13.2181 1220.28 14.8233 1217.16 17.7077C1214.02 20.6172 1212.3 24.4296 1212.3 28.4929V29.5463C1212.3 37.9738 1219.01 44.8211 1227.3 44.8211C1234.01 44.8211 1236.78 42.6139 1237.48 41.9116V32.1047H1226.5V35.3653H1234.44V40.2813H1234.41C1233.39 40.6826 1231.27 41.5354 1227.3 41.5354C1224.15 41.5354 1221.18 40.3064 1218.99 38.049C1216.77 35.7917 1215.57 32.7819 1215.57 29.5212V28.4678C1215.57 21.9716 1221.61 16.4536 1228.77 16.4536C1233.69 16.4787 1236.63 17.3064 1239.13 19.3631ZM1262.79 23.2006C1264.01 23.2006 1265.06 23.4013 1265.91 23.8026C1266.31 22.7993 1266.73 21.9465 1267.33 20.9433C1266.46 20.3162 1264.34 19.9149 1262.79 19.9149C1256.87 19.9149 1252.41 24.4046 1252.41 30.374V49.4361H1255.65V30.374C1255.65 26.1603 1258.57 23.2006 1262.79 23.2006ZM1206.66 28.4929V29.5463C1206.66 35.2148 1208.8 40.482 1212.67 44.4198C1216.54 48.3326 1221.73 50.4896 1227.27 50.4896C1231.74 50.4896 1235.68 49.4863 1239.03 47.4798C1241.77 45.8244 1243 44.169 1243.1 44.0185V26.4613H1226.5V29.7219H1239.85V43.0403C1238.28 44.6205 1234.56 47.254 1227.3 47.254C1222.56 47.254 1218.16 45.4231 1214.92 42.1123C1211.7 38.8266 1209.93 34.362 1209.93 29.5714V28.518C1209.93 23.9782 1211.95 19.4634 1215.49 16.1276C1219.11 12.7165 1223.83 10.8353 1228.77 10.8353C1233.39 10.8353 1236.58 11.5376 1239.15 13.1178V9.43074C1236.46 8.27698 1233.24 7.77535 1228.75 7.77535C1216.77 7.77535 1206.66 17.2563 1206.66 28.4929ZM1293.64 49.4361V30.374C1293.64 24.5049 1289.07 19.9149 1283.23 19.9149C1280.51 19.9149 1277.91 21.0185 1275.92 23.0251C1273.92 25.0316 1272.82 27.6401 1272.82 30.3489V33.2835C1272.82 38.952 1277.59 43.7175 1283.21 43.7175C1284.75 43.7175 1286.85 43.3413 1288.15 42.2628V38.8767C1286.87 39.9051 1285.05 40.507 1283.21 40.507C1279.21 40.507 1276.07 37.3467 1276.07 33.3337V30.3991C1276.07 26.3609 1279.21 23.2257 1283.21 23.2257C1287.22 23.2257 1290.34 26.386 1290.34 30.3991V49.4612H1293.64V49.4361ZM1262.79 17.5322C1264.99 17.5322 1266.91 18.0087 1268.63 18.9869C1269.43 17.9585 1270.25 17.1559 1270.88 16.5289C1269.05 15.1243 1265.96 14.2715 1262.81 14.2715C1258.3 14.2715 1254.2 15.9018 1251.28 18.8866C1248.39 21.8211 1246.79 25.9095 1246.79 30.3991V49.4612H1250.04V30.3991C1250.01 22.8244 1255.25 17.5322 1262.79 17.5322ZM1332.35 19.0371C1329.3 15.9771 1325.29 14.2715 1321.04 14.2715C1317.95 14.2715 1314.85 15.4253 1313.13 16.579C1309.59 18.9367 1306.69 21.5201 1301.45 28.3173V33.2082C1305.89 27.3893 1310.09 22.8244 1313.28 20.2911C1315.38 18.6107 1318.35 17.5572 1321.04 17.5572C1327.98 17.5572 1333.82 23.4514 1333.82 30.3991V33.3337C1333.82 36.7699 1332.47 40.0054 1330.03 42.4383C1327.61 44.8462 1324.41 46.1755 1321.04 46.1755C1315.35 46.1755 1310.34 42.2377 1308.99 36.8953L1306.69 39.6793C1308.36 45.2977 1314.4 49.4361 1321.04 49.4361C1325.29 49.4361 1329.28 47.7306 1332.35 44.6706C1335.39 41.5856 1337.09 37.5725 1337.09 33.3086V30.374C1337.09 26.1352 1335.39 22.097 1332.35 19.0371Z" fill="#CFCFDE"/>
<g clip-path="url(#clip1_64_94)">
<path d="M556.136 22.5348C556.136 24.3343 554.674 25.7834 552.86 25.7834C551.046 25.7834 549.586 24.3343 549.586 22.5348C549.586 20.7352 550.996 19.2862 552.86 19.2862C554.725 19.3361 556.136 20.7857 556.136 22.5348ZM542.633 29.0829V29.8828C542.633 29.8828 541.071 27.8825 537.746 27.8825C532.255 27.8825 527.972 32.0314 527.972 37.7791C527.972 43.4774 532.204 47.6757 537.746 47.6757C541.122 47.6757 542.633 45.6265 542.633 45.6265V46.4758C542.633 46.8758 542.936 47.1749 543.338 47.1749H547.419V28.3809H543.338C542.936 28.3824 542.633 28.7329 542.633 29.0829ZM542.633 41.1281C541.878 42.2281 540.366 43.1778 538.552 43.1778C535.328 43.1778 532.859 41.1785 532.859 37.7791C532.859 34.3802 535.328 32.3809 538.552 32.3809C540.316 32.3809 541.928 33.3806 542.633 34.4302V41.1281ZM550.442 28.3824H555.279V47.1764H550.442V28.3824ZM622.691 27.882C619.365 27.882 617.803 29.8823 617.803 29.8823V19.3361H612.967V47.1764H617.048C617.451 47.1764 617.753 46.8264 617.753 46.4763V45.627C617.753 45.627 619.315 47.6762 622.64 47.6762C628.132 47.6762 632.414 43.4789 632.414 37.7806C632.414 32.0823 628.132 27.882 622.691 27.882ZM621.885 43.1274C620.02 43.1274 618.559 42.1787 617.803 41.0781V34.3802C618.559 33.3806 620.171 32.331 621.885 32.331C625.109 32.331 627.578 34.3303 627.578 37.7292C627.578 41.1281 625.109 43.1274 621.885 43.1274ZM610.448 36.0305V47.2263H605.611V36.5797C605.611 33.4814 604.603 32.2311 601.884 32.2311C600.424 32.2311 598.912 32.9811 597.953 34.0811V47.1769H593.117V28.3829H596.945C597.348 28.3829 597.651 28.7329 597.651 29.0829V29.8828C599.062 28.4328 600.925 27.8825 602.789 27.8825C604.906 27.8825 606.669 28.4832 608.08 29.6826C609.792 31.0822 610.448 32.8813 610.448 36.0305ZM581.377 27.882C578.052 27.882 576.49 29.8823 576.49 29.8823V19.3361H571.653V47.1764H575.734C576.137 47.1764 576.44 46.8264 576.44 46.4763V45.627C576.44 45.627 578.002 47.6762 581.326 47.6762C586.818 47.6762 591.101 43.4789 591.101 37.7806C591.151 32.0818 586.869 27.882 581.377 27.882ZM580.57 43.1274C578.706 43.1274 577.246 42.1787 576.49 41.0781V34.3802C577.246 33.3806 578.858 32.331 580.57 32.331C583.796 32.331 586.264 34.3303 586.264 37.7292C586.264 41.1281 583.796 43.1274 580.57 43.1274ZM567.471 27.882C568.932 27.882 569.688 28.1327 569.688 28.1327V32.5807C569.688 32.5807 565.657 31.231 563.139 34.0806V47.2258H558.301V28.3824H562.383C562.786 28.3824 563.088 28.7324 563.088 29.0824V29.8823C563.995 28.8322 565.96 27.882 567.471 27.882ZM517.241 45.4767C516.989 44.877 516.737 44.2274 516.485 43.6771C516.082 42.7779 515.679 41.9275 515.327 41.1281L515.276 41.0781C511.799 33.5803 508.072 25.9836 504.141 18.4868L503.99 18.1862C503.577 17.4085 503.174 16.6253 502.782 15.8369C502.278 14.9366 501.774 13.9879 500.968 13.0876C499.356 11.0883 497.038 9.98828 494.57 9.98828C492.05 9.98828 489.783 11.0883 488.121 12.9872C487.365 13.8865 486.811 14.8362 486.307 15.7365C485.914 16.5244 485.511 17.3076 485.099 18.0858L484.947 18.3864C481.068 25.8832 477.289 33.4805 473.813 40.9778L473.762 41.0772C473.41 41.8781 473.006 42.7274 472.603 43.6262C472.351 44.1764 472.1 44.7761 471.848 45.4258C471.193 47.2748 470.991 49.0244 471.244 50.8244C471.798 54.5734 474.316 57.7211 477.793 59.1217C479.103 59.672 480.464 59.9216 481.874 59.9216C482.277 59.9216 482.781 59.8717 483.184 59.8213C484.847 59.6215 486.56 59.0723 488.223 58.1225C490.289 56.9726 492.254 55.3238 494.47 52.9246C496.687 55.3238 498.702 56.9726 500.717 58.1225C502.381 59.0723 504.093 59.6215 505.756 59.8213C506.159 59.8722 506.663 59.9216 507.066 59.9216C508.477 59.9216 509.887 59.672 511.147 59.1217C514.674 57.7211 517.142 54.5234 517.697 50.8244C518.097 49.0753 517.896 47.3267 517.241 45.4767ZM494.519 48.0757C491.798 44.6768 490.034 41.4781 489.43 38.7798C489.179 37.6298 489.128 36.6302 489.279 35.7304C489.38 34.9305 489.683 34.2304 490.086 33.6307C491.043 32.2821 492.655 31.4317 494.52 31.4317C496.384 31.4317 498.047 32.2316 498.954 33.6307C499.357 34.2304 499.659 34.931 499.761 35.7304C499.911 36.6307 499.861 37.6798 499.609 38.7798C499.003 41.4282 497.239 44.6273 494.519 48.0757ZM514.621 50.425C514.268 53.024 512.505 55.2739 510.036 56.2735C508.827 56.7729 507.517 56.9232 506.208 56.7729C504.948 56.6226 503.688 56.2226 502.379 55.4736C500.565 54.473 498.751 52.9246 496.635 50.6247C499.96 46.5767 501.975 42.8772 502.731 39.5792C503.084 38.0293 503.135 36.6302 502.983 35.3299C502.782 34.0806 502.328 32.9307 501.623 31.931C500.06 29.6811 497.44 28.3824 494.519 28.3824C491.597 28.3824 488.977 29.732 487.415 31.931C486.71 32.9307 486.256 34.0806 486.055 35.3299C485.853 36.6302 485.903 38.0792 486.306 39.5792C487.062 42.8772 489.127 46.6261 492.402 50.6747C490.336 52.974 488.472 54.5239 486.658 55.5236C485.348 56.2736 484.089 56.6735 482.83 56.8228C481.47 56.9731 480.159 56.7729 479.001 56.3235C476.532 55.3238 474.769 53.0739 474.417 50.4749C474.266 49.2256 474.366 47.9763 474.87 46.5767C475.02 46.0764 475.273 45.5771 475.525 44.9774C475.878 44.1775 476.28 43.3271 476.683 42.4778L476.734 42.3784C480.21 34.9305 483.938 27.3333 487.818 19.9363L487.969 19.6357C488.372 18.8867 488.776 18.0868 489.178 17.3368C489.581 16.5369 490.034 15.7869 490.589 15.1368C491.647 13.9384 493.057 13.2878 494.62 13.2878C496.182 13.2878 497.592 13.9384 498.65 15.1368C499.205 15.7884 499.658 16.5384 500.061 17.3368C500.465 18.0868 500.868 18.8867 501.27 19.6357L501.422 19.9363C505.242 27.364 508.92 34.8627 512.455 42.4283V42.4783C512.859 43.2792 513.211 44.178 513.614 44.9789C513.866 45.5776 514.118 46.0769 514.269 46.5772C514.671 47.8755 514.822 49.1258 514.621 50.425Z" fill="#CFCFDE"/>
</g>
<g clip-path="url(#clip2_64_94)">
<path d="M387.28 38.5903L395.376 59.8832C392.99 59.5447 390.606 59.1207 388.178 58.7387L383.617 46.9735L378.931 57.7675C376.631 57.3854 374.372 57.2582 372.072 56.9616L380.294 38.3372L372.836 19.248H379.739L383.914 29.9134L388.389 19.248H395.375L387.28 38.5903ZM367.386 19.248H361.122V56.1583C363.167 56.2857 365.297 56.3696 367.386 56.6229V19.248ZM355.711 55.7344C350.003 55.3537 344.293 55.0166 338.456 54.8879V19.2481H344.846V48.8778C348.511 48.9619 352.174 49.2572 355.711 49.4264V55.7344ZM331.638 33.6829V40.0315H322.904V54.4651H316.599V19.248H334.494V25.5965H322.905V33.6831H331.639L331.638 33.6829ZM305.861 25.5965V54.8038C303.73 54.8038 301.559 54.8038 299.47 54.8879V25.5965H292.866V19.248H312.506V25.5965H305.861ZM285.964 40.3689C283.153 40.3689 279.829 40.3689 277.443 40.4976V49.9357C281.192 49.6811 284.942 49.3857 288.733 49.2585V55.3538L271.053 56.7516V19.248H288.732V25.5965H277.443V34.1475C279.915 34.1475 283.706 34.0203 285.964 34.0203V40.3702L285.964 40.3689ZM250.557 36.8132V58.9933C248.258 59.2479 246.212 59.5445 244.04 59.8832V19.248H250.133L258.44 42.3181V19.248H264.832V57.2582C262.574 57.6402 260.272 57.7675 257.844 58.1048L250.557 36.8132Z" fill="#CFCFDE"/>
</g>
<g clip-path="url(#clip3_64_94)">
<path fill-rule="evenodd" clip-rule="evenodd" d="M803.483 57.5585C794.588 64.1124 781.65 67.6043 770.492 67.6043C754.859 67.6043 740.843 61.8562 730.169 52.2939C729.361 51.5418 730.061 50.5211 731.086 51.112C742.568 57.7734 756.745 61.7487 771.408 61.7487C781.273 61.7487 792.162 59.7073 802.189 55.4634C803.698 54.8725 804.938 56.4841 803.483 57.5585Z" fill="#CFCFDE"/>
<path fill-rule="evenodd" clip-rule="evenodd" d="M807.202 53.3145C806.07 51.8641 799.655 52.6162 796.798 52.9922C795.936 53.0996 795.774 52.3476 796.583 51.8103C801.704 48.2111 810.059 49.2855 811.03 50.4673C812 51.6492 810.76 60.0296 805.962 64.0049C805.208 64.5959 804.507 64.2735 804.83 63.4677C805.908 60.7817 808.334 54.8187 807.202 53.3145Z" fill="#CFCFDE"/>
<path fill-rule="evenodd" clip-rule="evenodd" d="M796.96 26.5617V23.0699C796.96 22.5327 797.337 22.2103 797.822 22.2103H813.455C813.941 22.2103 814.372 22.5864 814.372 23.0699V26.0245C814.372 26.508 813.941 27.1526 813.186 28.227L805.1 39.7233C808.119 39.6695 811.299 40.0993 813.994 41.6035C814.587 41.9258 814.749 42.463 814.803 42.9465V46.6532C814.803 47.1904 814.264 47.7813 813.671 47.459C808.873 44.9342 802.458 44.6656 797.176 47.5128C796.636 47.7814 796.043 47.2441 796.043 46.7069V43.1614C796.043 42.6242 796.043 41.6572 796.636 40.7977L806.016 27.4212H797.876C797.391 27.4212 796.96 27.0452 796.96 26.5617ZM739.98 48.2111H735.237C734.805 48.1574 734.428 47.8351 734.374 47.4053V23.1236C734.374 22.6401 734.805 22.264 735.29 22.264H739.711C740.196 22.264 740.519 22.6401 740.573 23.0699V26.2394H740.681C741.813 23.1773 744.023 21.7268 746.934 21.7268C749.899 21.7268 751.786 23.1773 753.08 26.2394C754.212 23.1773 756.853 21.7268 759.656 21.7268C761.651 21.7268 763.807 22.5327 765.155 24.4129C766.664 26.4543 766.341 29.4089 766.341 32.0412V47.4053C766.341 47.8888 765.91 48.2648 765.424 48.2648H760.735C760.249 48.2111 759.872 47.8351 759.872 47.4053V34.5123C759.872 33.4917 759.98 30.9131 759.764 29.9461C759.387 28.3345 758.363 27.851 756.961 27.851C755.829 27.851 754.589 28.6031 754.104 29.8387C753.619 31.0742 753.673 33.1156 753.673 34.5123V47.4053C753.673 47.8888 753.241 48.2648 752.756 48.2648H748.012C747.527 48.2111 747.15 47.8351 747.15 47.4053V34.5123C747.15 31.8263 747.581 27.7973 744.239 27.7973C740.843 27.7973 740.951 31.6652 740.951 34.5123V47.4053C740.897 47.8351 740.519 48.2111 739.98 48.2111ZM827.849 21.7268C834.91 21.7268 838.738 27.7436 838.738 35.4256C838.738 42.8391 834.533 48.7483 827.849 48.7483C820.948 48.7483 817.175 42.7316 817.175 35.2107C817.121 27.6361 820.948 21.7268 827.849 21.7268ZM827.849 26.7229C824.345 26.7229 824.129 31.504 824.129 34.4586C824.129 37.4133 824.075 43.7523 827.795 43.7523C831.46 43.7523 831.676 38.6489 831.676 35.5331C831.676 33.4917 831.568 31.0205 830.975 29.0866C830.436 27.3675 829.358 26.7229 827.849 26.7229ZM847.848 48.2111H843.104C842.619 48.1574 842.242 47.7814 842.242 47.3516V23.0161C842.296 22.5864 842.673 22.2103 843.158 22.2103H847.578C848.01 22.2103 848.333 22.5327 848.441 22.9087V26.6154H848.549C849.896 23.2847 851.729 21.7268 855.018 21.7268C857.12 21.7268 859.222 22.4789 860.57 24.574C861.81 26.508 861.81 29.7849 861.81 32.1486V47.459C861.756 47.8888 861.379 48.2111 860.893 48.2111H856.15C855.718 48.1574 855.341 47.8351 855.287 47.459V34.2437C855.287 31.5577 855.611 27.6898 852.322 27.6898C851.19 27.6898 850.112 28.4419 849.573 29.6238C848.926 31.128 848.818 32.5784 848.818 34.2437V47.3516C848.764 47.8351 848.333 48.2111 847.848 48.2111ZM784.507 36.6075C784.507 38.434 784.561 39.9919 783.645 41.6572C782.89 43.0002 781.704 43.806 780.357 43.806C778.524 43.806 777.446 42.4093 777.446 40.3679C777.446 36.3389 781.057 35.5868 784.507 35.5868V36.6075ZM789.305 48.1574C788.982 48.426 788.55 48.4797 788.173 48.2648C786.61 46.9755 786.286 46.3309 785.424 45.0953C782.836 47.7276 780.95 48.5334 777.607 48.5334C773.618 48.5334 770.492 46.0623 770.492 41.1737C770.492 37.3058 772.594 34.7272 775.559 33.4379C778.146 32.3098 781.758 32.0949 784.507 31.7726V31.1817C784.507 30.0535 784.615 28.7105 783.914 27.7436C783.321 26.884 782.243 26.508 781.273 26.508C779.44 26.508 777.823 27.4212 777.446 29.3552C777.338 29.7849 777.068 30.2147 776.637 30.2147L772.055 29.7312C771.678 29.6238 771.246 29.3552 771.354 28.7642C772.432 23.1773 777.446 21.512 781.974 21.512C784.292 21.512 787.311 22.1029 789.143 23.8757C791.461 26.0245 791.246 28.9254 791.246 32.0412V39.4009C791.246 41.6035 792.162 42.5705 793.025 43.806C793.348 44.2358 793.402 44.773 793.025 45.0416C792 45.8474 790.275 47.3516 789.305 48.1574ZM722.245 36.6075C722.245 38.434 722.299 39.9919 721.383 41.6572C720.628 43.0002 719.442 43.806 718.094 43.806C716.261 43.806 715.183 42.4093 715.183 40.3679C715.183 36.3389 718.795 35.5868 722.245 35.5868V36.6075ZM726.989 48.1574C726.665 48.426 726.234 48.4797 725.857 48.2648C724.293 46.9755 723.97 46.3309 723.108 45.0953C720.52 47.7276 718.633 48.5334 715.291 48.5334C711.302 48.5334 708.175 46.0623 708.175 41.1737C708.175 37.3058 710.278 34.7272 713.243 33.4379C715.83 32.3098 719.442 32.0949 722.191 31.7726V31.1817C722.191 30.0535 722.299 28.7105 721.598 27.7436C721.005 26.884 719.927 26.508 718.957 26.508C717.124 26.508 715.507 27.4212 715.129 29.3552C715.022 29.7849 714.752 30.2147 714.321 30.2147L709.739 29.7312C709.361 29.6238 708.93 29.3552 709.038 28.7642C710.116 23.1773 715.129 21.512 719.658 21.512C721.976 21.512 724.994 22.1029 726.827 23.8757C729.145 26.0245 728.929 28.9254 728.929 32.0412V39.4009C728.929 41.6035 729.846 42.5705 730.708 43.806C731.032 44.2358 731.086 44.773 730.708 45.0416C729.684 45.8474 727.959 47.3516 726.989 48.1574Z" fill="#CFCFDE"/>
</g>
<path d="M1037.1 29.4124C1035.5 29.4124 1034.35 29.9378 1033.19 30.4732V42.5868C1034.3 42.6936 1034.95 42.6937 1036.01 42.6937C1039.84 42.6937 1040.36 40.9322 1040.36 38.4728V32.6873C1040.36 30.8711 1039.76 29.4124 1037.1 29.4124ZM1011.65 28.7513C1008.99 28.7513 1008.38 30.2163 1008.38 32.0307V33.0502H1014.91V32.0307C1014.91 30.2163 1014.3 28.7513 1011.65 28.7513ZM962.344 41.3598C962.344 42.7951 963.019 43.5407 964.508 43.5407C966.105 43.5407 967.051 43.0179 968.218 42.4808V39.6073H964.724C963.07 39.6073 962.344 39.9163 962.344 41.3598ZM1061.86 29.4124C1059.2 29.4124 1058.27 30.8711 1058.27 32.6873V39.3154C1058.27 41.1361 1059.2 42.5993 1061.86 42.5993C1064.52 42.5993 1065.45 41.1361 1065.45 39.3154V32.6873C1065.44 30.8711 1064.52 29.4124 1061.86 29.4124ZM949.291 48.7918H941.462V29.7726H937.55V23.219H941.462V19.283C941.462 13.9358 943.67 10.757 949.946 10.757H955.171V17.3123H951.905C949.462 17.3123 949.301 18.2285 949.301 19.9378L949.291 23.2182H955.207L954.515 29.7717H949.291V48.7918ZM976.049 48.8412H969.523L969.241 47.1848C966.262 48.8412 963.603 49.1097 961.849 49.1097C957.063 49.1097 954.516 45.9012 954.516 41.464C954.516 36.2291 957.488 34.3607 962.806 34.3607H968.218V33.229C968.218 30.5567 967.912 29.7726 963.818 29.7726H957.123L957.777 23.219H965.095C974.079 23.219 976.049 26.0673 976.049 33.282V48.8412ZM998.239 30.2531C994.178 29.5543 993.012 29.4007 991.058 29.4007C987.549 29.4007 986.488 30.1777 986.488 33.1688V38.8268C986.488 41.8179 987.549 42.5984 991.058 42.5984C993.012 42.5984 994.178 42.4421 998.239 41.7406V48.1334C994.682 48.9337 992.365 49.1439 990.406 49.1439C982.001 49.1439 978.66 44.7075 978.66 38.2986V33.7077C978.66 27.2934 982.001 22.849 990.406 22.849C992.365 22.849 994.682 23.0601 998.239 23.864V30.2531ZM1022.74 38.2986H1008.38V38.8268C1008.38 41.8179 1009.44 42.5984 1012.95 42.5984C1016.11 42.5984 1018.03 42.4421 1022.08 41.7406V48.1334C1018.18 48.9337 1016.14 49.1439 1012.3 49.1439C1003.9 49.1439 1000.55 44.7075 1000.55 38.2986V33.0493C1000.55 27.4416 1003.03 22.849 1011.65 22.849C1020.26 22.849 1022.74 27.3886 1022.74 33.0493V38.2986ZM1048.19 38.4199C1048.19 44.6141 1046.43 49.1322 1035.74 49.1322C1031.88 49.1322 1029.62 48.7918 1025.36 48.1343V12.7259L1033.19 11.4154V23.8011C1034.88 23.1705 1037.07 22.8499 1039.06 22.8499C1046.89 22.8499 1048.19 26.3718 1048.19 32.0316V38.4199H1048.19ZM1073.28 38.5546C1073.28 43.8982 1071.08 49.081 1061.89 49.081C1052.68 49.081 1050.44 43.8982 1050.44 38.5546V33.3951C1050.44 28.0488 1052.68 22.8651 1061.89 22.8651C1071.08 22.8651 1073.28 28.0488 1073.28 33.3951V38.5546ZM1098.35 38.5546C1098.35 43.8982 1096.15 49.081 1086.96 49.081C1077.76 49.081 1075.52 43.8982 1075.52 38.5546V33.3951C1075.52 28.0488 1077.76 22.8651 1086.96 22.8651C1096.15 22.8651 1098.35 28.0488 1098.35 33.3951V38.5546ZM1124.08 48.7918H1115.6L1108.42 36.7707V48.7918H1100.6V12.725L1108.42 11.4145V34.6329L1115.6 23.219H1124.08L1116.25 35.6749L1124.08 48.7918ZM1086.93 29.4124C1084.27 29.4124 1083.35 30.8711 1083.35 32.6873V39.3154C1083.35 41.1361 1084.27 42.5993 1086.93 42.5993C1089.59 42.5993 1090.53 41.1361 1090.53 39.3154V32.6873C1090.53 30.8711 1089.59 29.4124 1086.93 29.4124ZM1128.55 44.306C1129.87 44.306 1130.92 45.3848 1130.92 46.7321C1130.92 48.1001 1129.87 49.1672 1128.54 49.1672C1127.22 49.1672 1126.15 48.1001 1126.15 46.7321C1126.15 45.3848 1127.22 44.306 1128.54 44.306H1128.55ZM1128.54 44.6832C1127.48 44.6832 1126.61 45.6003 1126.61 46.7321C1126.61 47.8845 1127.48 48.79 1128.55 48.79C1129.62 48.8007 1130.48 47.8845 1130.48 46.7429C1130.48 45.6012 1129.62 44.6832 1128.55 44.6832H1128.54ZM1128.09 48.1441H1127.66V45.4368C1127.89 45.4054 1128.1 45.374 1128.43 45.374C1128.83 45.374 1129.1 45.4602 1129.26 45.5779C1129.42 45.6973 1129.51 45.8797 1129.51 46.1375C1129.51 46.495 1129.27 46.7096 1128.98 46.7968V46.8174C1129.22 46.8615 1129.38 47.0752 1129.43 47.4731C1129.5 47.8944 1129.56 48.0552 1129.6 48.1432H1129.15C1129.09 48.0552 1129.02 47.8082 1128.97 47.4516C1128.91 47.1076 1128.73 46.9782 1128.39 46.9782H1128.09V48.1441H1128.09ZM1128.09 46.6459H1128.4C1128.76 46.6459 1129.06 46.5156 1129.06 46.1806C1129.06 45.9435 1128.89 45.7072 1128.4 45.7072C1128.26 45.7072 1128.17 45.718 1128.09 45.7279V46.6459Z" fill="#CFCFDE"/>
<defs>
<clipPath id="clip0_64_94">
<rect width="168.303" height="54.6985" fill="white" transform="translate(0 9.98883)"/>
</clipPath>
<clipPath id="clip1_64_94">
<rect width="161.323" height="49.9333" fill="white" transform="translate(471.113 9.98883)"/>
</clipPath>
<clipPath id="clip2_64_94">
<rect width="151.336" height="40.7149" fill="white" transform="translate(244.04 19.2073)"/>
</clipPath>
<clipPath id="clip3_64_94">
<rect width="153.641" height="46.0923" fill="white" transform="matrix(-1 0 0 -1 861.813 67.6042)"/>
</clipPath>
</defs>
</svg>
