<svg width="298" height="53" viewBox="0 0 298 53" fill="none" xmlns="http://www.w3.org/2000/svg">
<path d="M26.075 0L34.9644 14.0654L50.8738 18.3111L40.4583 31.2496L41.4015 47.9389L26.075 41.87L10.7485 47.9389L11.6917 31.2496L1.2762 18.3111L17.1856 14.0654L26.075 0Z" fill="#9A5FE6"/>
<path d="M87.5375 0L96.4269 14.0654L112.336 18.3111L101.921 31.2496L102.864 47.9389L87.5375 41.87L72.211 47.9389L73.1542 31.2496L62.7387 18.3111L78.6481 14.0654L87.5375 0Z" fill="#9A5FE6"/>
<path d="M149 0L157.889 14.0654L173.799 18.3111L163.383 31.2496L164.327 47.9389L149 41.87L133.674 47.9389L134.617 31.2496L124.201 18.3111L140.111 14.0654L149 0Z" fill="#9A5FE6"/>
<path d="M210.462 0L219.352 14.0654L235.261 18.3111L224.846 31.2496L225.789 47.9389L210.462 41.87L195.136 47.9389L196.079 31.2496L185.664 18.3111L201.573 14.0654L210.462 0Z" fill="#9A5FE6"/>
<path d="M271.925 0L280.814 14.0654L296.724 18.3111L286.308 31.2496L287.251 47.9389L271.925 41.87L256.598 47.9389L257.542 31.2496L247.126 18.3111L263.036 14.0654L271.925 0Z" fill="#9A5FE6"/>
<path d="M271.925 0L280.814 14.0654L296.724 18.3111L286.308 31.2496L287.251 47.9389L271.925 41.87L256.598 47.9389L257.542 31.2496L247.126 18.3111L263.036 14.0654L271.925 0Z" fill="#9A5FE6"/>
</svg>
