<svg width="338" height="166" viewBox="0 0 338 166" fill="none" xmlns="http://www.w3.org/2000/svg">
<rect x="0.5" y="0.5" width="337" height="165" rx="4.5" stroke="#9747FF" stroke-dasharray="10 5"/>
<path d="M77.075 20L85.9644 34.0654L101.874 38.3111L91.4583 51.2496L92.4015 67.9389L77.075 61.87L61.7485 67.9389L62.6917 51.2496L52.2762 38.3111L68.1856 34.0654L77.075 20Z" fill="#9A5FE6"/>
<path d="M138.225 20L147.114 34.0654L163.024 38.3111L152.608 51.2496L153.551 67.9389L138.225 61.87L122.898 67.9389L123.842 51.2496L113.426 38.3111L129.336 34.0654L138.225 20Z" fill="#9A5FE6"/>
<path d="M199.375 20L208.264 34.0654L224.174 38.3111L213.758 51.2496L214.701 67.9389L199.375 61.87L184.048 67.9389L184.992 51.2496L174.576 38.3111L190.486 34.0654L199.375 20Z" fill="#9A5FE6"/>
<path d="M260.525 20L269.414 34.0654L285.324 38.3111L274.908 51.2496L275.852 67.9389L260.525 61.87L245.199 67.9389L246.142 51.2496L235.726 38.3111L251.636 34.0654L260.525 20Z" fill="#9A5FE6"/>
</svg>
