<svg xmlns="http://www.w3.org/2000/svg" width="182" height="86" fill="none" viewBox="0 0 182 86">
  <path fill="#CF96E3" d="m133 0 11.001 29.712h35.601L150.8 48.075l11.001 29.713L133 59.425l-28.801 18.363L115.2 48.076 86.398 29.711H122L133 0Z"/>
  <path fill="#2A083A" fill-opacity=".51" d="M7.456 30.32V54H1.984V30.32h5.472Zm4.157 14.72c0-1.835.342-3.445 1.024-4.832.704-1.387 1.654-2.453 2.848-3.2 1.195-.747 2.529-1.12 4-1.12 1.26 0 2.358.256 3.297.768.96.512 1.695 1.184 2.207 2.016v-2.528h5.473V54h-5.473v-2.528c-.533.832-1.28 1.504-2.24 2.016-.938.512-2.037.768-3.296.768-1.45 0-2.773-.373-3.967-1.12-1.195-.768-2.145-1.845-2.849-3.232-.682-1.408-1.024-3.03-1.024-4.864Zm13.377.032c0-1.365-.384-2.443-1.152-3.232-.747-.79-1.665-1.184-2.753-1.184s-2.015.395-2.784 1.184c-.746.768-1.12 1.835-1.12 3.2 0 1.365.374 2.453 1.12 3.264.769.79 1.697 1.184 2.785 1.184s2.005-.395 2.752-1.184c.767-.79 1.151-1.867 1.151-3.232Zm21.59-9.12c2.09 0 3.755.683 4.992 2.048 1.259 1.344 1.888 3.2 1.888 5.568V54h-5.44v-9.696c0-1.195-.31-2.123-.928-2.784-.618-.661-1.45-.992-2.496-.992-1.045 0-1.877.33-2.496.992-.618.661-.928 1.59-.928 2.784V54H35.7V36.144h5.472v2.368c.555-.79 1.302-1.408 2.24-1.856.939-.47 1.995-.704 3.168-.704Zm18.747-.064c1.258 0 2.357.256 3.296.768.96.512 1.696 1.184 2.208 2.016v-2.528h5.472v17.824c0 1.643-.33 3.125-.992 4.448-.64 1.344-1.632 2.41-2.976 3.2-1.323.79-2.976 1.184-4.96 1.184-2.646 0-4.79-.63-6.432-1.888-1.643-1.237-2.582-2.923-2.816-5.056h5.408c.17.683.576 1.216 1.216 1.6.64.405 1.43.608 2.368.608 1.13 0 2.026-.33 2.688-.992.682-.64 1.024-1.675 1.024-3.104V51.44c-.534.832-1.27 1.515-2.208 2.048-.939.512-2.038.768-3.296.768-1.472 0-2.806-.373-4-1.12-1.195-.768-2.144-1.845-2.848-3.232-.683-1.408-1.024-3.03-1.024-4.864 0-1.835.341-3.445 1.024-4.832.704-1.387 1.653-2.453 2.848-3.2 1.194-.747 2.528-1.12 4-1.12Zm5.504 9.184c0-1.365-.384-2.443-1.152-3.232-.747-.79-1.664-1.184-2.752-1.184-1.088 0-2.016.395-2.784 1.184-.747.768-1.12 1.835-1.12 3.2 0 1.365.373 2.453 1.12 3.264.768.79 1.696 1.184 2.784 1.184 1.088 0 2.005-.395 2.752-1.184.768-.79 1.152-1.867 1.152-3.232ZM87.013 30.32V54h-5.472V30.32h5.472Zm7.998 3.968c-.96 0-1.75-.277-2.368-.832a2.822 2.822 0 0 1-.896-2.112c0-.853.299-1.557.896-2.112.619-.576 1.408-.864 2.368-.864.939 0 1.707.288 2.304.864.619.555.928 1.259.928 2.112 0 .832-.31 1.536-.928 2.112-.597.555-1.365.832-2.304.832Zm2.72 1.856V54h-5.472V36.144h5.472Zm16.126-.192c2.09 0 3.754.683 4.992 2.048 1.258 1.344 1.888 3.2 1.888 5.568V54h-5.44v-9.696c0-1.195-.31-2.123-.928-2.784-.619-.661-1.451-.992-2.496-.992-1.046 0-1.878.33-2.496.992-.619.661-.928 1.59-.928 2.784V54h-5.472V36.144h5.472v2.368c.554-.79 1.301-1.408 2.24-1.856.938-.47 1.994-.704 3.168-.704ZM136.731 54l-5.44-7.488V54h-5.472V30.32h5.472v13.088l5.408-7.264h6.752l-7.424 8.96L143.515 54h-6.784Z"/>
</svg>